<svg width="24" height="24" viewBox="0 0 24 24" fill="none" xmlns="http://www.w3.org/2000/svg">
<path d="M8.07 16H10V8H8.07C8.95054 6.47486 10.3097 5.2829 11.9367 4.60896C13.5638 3.93503 15.3677 3.81679 17.0688 4.27259C18.7698 4.72839 20.273 5.73275 21.345 7.12991C22.4171 8.52706 22.9982 10.2389 22.9982 12C22.9982 13.7611 22.4171 15.4729 21.345 16.8701C20.273 18.2672 18.7698 19.2716 17.0688 19.7274C15.3677 20.1832 13.5638 20.065 11.9367 19.391C10.3097 18.7171 8.95054 17.5251 8.07 16Z" fill="rgb(71, 85, 105)"/>
<path d="M15 12L8 6V11H0V13H8V18L15 12Z" fill="rgb(148, 163, 184)"/>
</svg>
