<svg width="24" height="24" viewBox="0 0 24 24" fill="none" xmlns="http://www.w3.org/2000/svg">
<g clip-path="url(#clip0_16_2)">
<path d="M19.714 14.7L12.707 21.707L11.293 20.293L18.3 13.286C18.105 12.886 18.002 12.446 18 12C18 11.4067 18.1759 10.8266 18.5056 10.3333C18.8352 9.83994 19.3038 9.45542 19.8519 9.22836C20.4001 9.0013 21.0033 8.94189 21.5853 9.05764C22.1672 9.1734 22.7018 9.45912 23.1213 9.87868C23.5409 10.2982 23.8266 10.8328 23.9424 11.4147C24.0581 11.9967 23.9987 12.5999 23.7716 13.148C23.5446 13.6962 23.1601 14.1648 22.6667 14.4944C22.1734 14.8241 21.5933 15 21 15C20.5542 14.9978 20.1147 14.8953 19.714 14.7V14.7Z" fill="rgb(71, 85, 105)"/>
<path d="M10.714 18.3C11.114 18.105 11.554 18.002 12 18C12.5933 18 13.1734 18.1759 13.6667 18.5056C14.1601 18.8352 14.5446 19.3038 14.7716 19.8519C14.9987 20.4001 15.0581 21.0033 14.9424 21.5853C14.8266 22.1672 14.5409 22.7018 14.1213 23.1213C13.7018 23.5409 13.1672 23.8266 12.5853 23.9424C12.0033 24.0581 11.4001 23.9987 10.8519 23.7716C10.3038 23.5446 9.83523 23.1601 9.50559 22.6667C9.17595 22.1734 9 21.5933 9 21C9.002 20.554 9.105 20.115 9.3 19.714L3.293 13.707L4.707 12.293L10.714 18.3V18.3Z" fill="rgb(148, 163, 184)"/>
<path d="M5.7 10.714C5.895 11.114 5.998 11.554 6 12C6 12.5933 5.82405 13.1734 5.49441 13.6667C5.16477 14.1601 4.69623 14.5446 4.14805 14.7716C3.59987 14.9987 2.99667 15.0581 2.41473 14.9424C1.83279 14.8266 1.29824 14.5409 0.878681 14.1213C0.459123 13.7018 0.173401 13.1672 0.0576455 12.5853C-0.0581102 12.0033 0.00129986 11.4001 0.228363 10.8519C0.455426 10.3038 0.839943 9.83523 1.33329 9.50559C1.82664 9.17595 2.40666 9 3 9C3.446 9.002 3.885 9.105 4.286 9.3L11.293 2.293L12.707 3.707L5.7 10.714Z" fill="rgb(71, 85, 105)"/>
<path d="M19.707 9.292C19.0879 9.58862 18.5886 10.0879 18.292 10.707L13.286 5.7C12.886 5.895 12.446 5.998 12 6C11.4067 6 10.8266 5.82405 10.3333 5.49441C9.83994 5.16477 9.45543 4.69623 9.22836 4.14805C9.0013 3.59987 8.94189 2.99667 9.05765 2.41473C9.1734 1.83279 9.45912 1.29824 9.87868 0.878681C10.2982 0.459123 10.8328 0.173401 11.4147 0.0576455C11.9967 -0.0581102 12.5999 0.00129986 13.1481 0.228363C13.6962 0.455426 14.1648 0.839943 14.4944 1.33329C14.8241 1.82664 15 2.40666 15 3C14.9978 3.44575 14.8953 3.88529 14.7 4.286L19.707 9.292Z" fill="rgb(148, 163, 184)"/>
</g>
<defs>
<clipPath id="clip0_16_2">
<rect width="24" height="24" fill="white"/>
</clipPath>
</defs>
</svg>
