<svg width="24" height="24" viewBox="0 0 24 24" fill="none" xmlns="http://www.w3.org/2000/svg">
<g clip-path="url(#clip0_1_3)">
<path d="M18.974 8H22C22.5304 8 23.0391 8.21071 23.4142 8.58579C23.7893 8.96086 24 9.46957 24 10V16H22V21C22 21.2652 21.8946 21.5196 21.7071 21.7071C21.5196 21.8946 21.2652 22 21 22H19C18.7348 22 18.4804 21.8946 18.2929 21.7071C18.1054 21.5196 18 21.2652 18 21V16H16V10C16 9.46957 16.2107 8.96086 16.5858 8.58579C16.9609 8.21071 17.4696 8 18 8H18.974ZM20 7C19.7337 7.00602 19.4688 6.95877 19.221 6.86103C18.9731 6.76328 18.7473 6.61701 18.5568 6.4308C18.3663 6.24458 18.2149 6.02218 18.1115 5.77666C18.0081 5.53113 17.9549 5.26742 17.9548 5.00101C17.9547 4.7346 18.0079 4.47087 18.1111 4.22529C18.2144 3.97971 18.3657 3.75723 18.5561 3.57093C18.7465 3.38462 18.9723 3.23823 19.22 3.14036C19.4678 3.04249 19.7327 2.99511 19.999 3.001C20.5216 3.01256 21.0188 3.22822 21.3844 3.60184C21.7499 3.97545 21.9547 4.47732 21.9548 5.00001C21.9549 5.5227 21.7504 6.02467 21.3851 6.39847C21.0197 6.77227 20.5226 6.98818 20 7ZM2.974 8H6C6.53043 8 7.03914 8.21071 7.41421 8.58579C7.78929 8.96086 8 9.46957 8 10V16H6V21C6 21.2652 5.89464 21.5196 5.70711 21.7071C5.51957 21.8946 5.26522 22 5 22H3C2.73478 22 2.48043 21.8946 2.29289 21.7071C2.10536 21.5196 2 21.2652 2 21V16H0V10C0 9.46957 0.210714 8.96086 0.585786 8.58579C0.960859 8.21071 1.46957 8 2 8H2.974ZM4 7C3.73366 7.00602 3.4688 6.95877 3.22098 6.86103C2.97315 6.76328 2.74735 6.61701 2.55683 6.4308C2.36631 6.24458 2.21491 6.02218 2.11153 5.77666C2.00814 5.53113 1.95485 5.26742 1.95478 5.00101C1.95472 4.7346 2.00788 4.47087 2.11114 4.22529C2.2144 3.97971 2.36569 3.75723 2.55611 3.57093C2.74654 3.38462 2.97227 3.23823 3.22004 3.14036C3.46782 3.04249 3.73266 2.99511 3.999 3.001C4.52156 3.01256 5.01883 3.22822 5.38437 3.60184C5.74991 3.97545 5.95465 4.47732 5.95478 5.00001C5.95492 5.5227 5.75042 6.02467 5.38507 6.39847C5.01972 6.77227 4.52256 6.98818 4 7V7Z" fill="rgb(71, 85, 105)"/>
<path d="M12 6C11.2044 6 10.4413 5.68393 9.87868 5.12132C9.31607 4.55871 9 3.79565 9 3C9 2.20435 9.31607 1.44129 9.87868 0.87868C10.4413 0.31607 11.2044 0 12 0C12.7956 0 13.5587 0.31607 14.1213 0.87868C14.6839 1.44129 15 2.20435 15 3C15 3.79565 14.6839 4.55871 14.1213 5.12132C13.5587 5.68393 12.7956 6 12 6ZM14 24H10C9.73478 24 9.48043 23.8946 9.29289 23.7071C9.10536 23.5196 9 23.2652 9 23V17H6V11C6 10.2044 6.31607 9.44129 6.87868 8.87868C7.44129 8.31607 8.20435 8 9 8H15C15.7956 8 16.5587 8.31607 17.1213 8.87868C17.6839 9.44129 18 10.2044 18 11V17H15V23C15 23.2652 14.8946 23.5196 14.7071 23.7071C14.5196 23.8946 14.2652 24 14 24Z" fill="rgb(148, 163, 184)"/>
</g>
<defs>
<clipPath id="clip0_1_3">
<rect width="24" height="24" fill="white"/>
</clipPath>
</defs>
</svg>
