<svg width="32" height="32" viewBox="0 0 32 32" fill="none" xmlns="http://www.w3.org/2000/svg">
<g clip-path="url(#clip0_9_8)">
<path d="M32 16C32 7.16344 24.8366 0 16 0C7.16344 0 0 7.16344 0 16C0 24.8366 7.16344 32 16 32C24.8366 32 32 24.8366 32 16Z" fill="#6366F1"/>
<path d="M18.277 0.160004C26.035 1.267 32 7.938 32 16C32 24.837 24.837 32 16 32C12.1736 32.0057 8.4729 30.6345 5.574 28.137L18.277 0.161004V0.160004Z" fill="#4F46E5"/>
<path d="M7.404 2.503L25.743 28.693C22.9505 30.8427 19.5241 32.0057 16 32C7.163 32 0 24.837 0 16C0 10.327 2.952 5.344 7.404 2.503Z" fill="url(#paint0_linear_9_8)"/>
<path d="M2.223 24.14L29.777 7.86C31.2364 10.3241 32.0044 13.1361 32 16C32 24.837 24.837 32 16 32C10.136 32 5.009 28.846 2.223 24.14V24.14Z" fill="url(#paint1_linear_9_8)"/>
</g>
<defs>
<linearGradient id="paint0_linear_9_8" x1="7.34654" y1="8.46995" x2="28.8259" y2="31.5348" gradientUnits="userSpaceOnUse">
<stop stop-color="#A5B4FC" stop-opacity="0"/>
<stop offset="1" stop-color="#A5B4FC"/>
</linearGradient>
<linearGradient id="paint1_linear_9_8" x1="28.6168" y1="14.9251" x2="13.1876" y2="35.2548" gradientUnits="userSpaceOnUse">
<stop stop-color="#38BDF8" stop-opacity="0"/>
<stop offset="1" stop-color="#38BDF8"/>
</linearGradient>
<clipPath id="clip0_9_8">
<rect width="32" height="32" fill="white"/>
</clipPath>
</defs>
</svg>
