<svg width="24" height="24" viewBox="0 0 24 24" fill="none" xmlns="http://www.w3.org/2000/svg">
<g clip-path="url(#clip0_3_33)">
<path d="M4.418 19.612C3.66246 18.8648 3.04377 17.9909 2.59 17.03L0.475 19.14C-0.373 19.99 -0.0609998 21.535 1.218 22.813C1.68704 23.297 2.26071 23.6671 2.895 23.895C3.148 23.981 3.414 24.026 3.682 24.03C4.132 24.041 4.568 23.87 4.89 23.556L7 21.44C6.03774 20.9886 5.16346 20.3696 4.418 19.612V19.612Z" fill="rgb(71, 85, 105)"/>
<path d="M10.034 13.997C8.91965 12.9049 8.05011 11.5885 7.483 10.135L4.595 13.02C4.28603 13.3785 4.08458 13.8169 4.01381 14.2849C3.94305 14.7528 4.00585 15.2312 4.195 15.665C4.54106 16.6232 5.10208 17.4894 5.835 18.197C6.77264 19.2469 8.07565 19.8993 9.478 20.021C9.76002 20.0312 10.0412 19.9845 10.3048 19.8837C10.5683 19.7828 10.8089 19.6299 11.012 19.434L13.895 16.552C12.4434 15.9794 11.1281 15.1087 10.034 13.996V13.997Z" fill="rgb(71, 85, 105)"/>
<path d="M21.554 2.471C20.6067 1.49121 19.4483 0.740493 18.167 0.276001C17.6301 0.0331396 17.0351 -0.0519123 16.4517 0.0307825C15.8682 0.113477 15.3203 0.360504 14.872 0.743001L9.715 5.888C8.305 7.296 9.05 10.163 11.448 12.556C12.3952 13.5362 13.5536 14.2872 14.835 14.752C15.294 14.909 15.775 14.992 16.26 14.998C16.6038 15.0106 16.9465 14.9538 17.2678 14.831C17.5891 14.7081 17.8824 14.5217 18.13 14.283L23.286 9.137C24.701 7.731 23.952 4.864 21.554 2.471V2.471ZM21.872 7.728C21.724 7.875 21.278 7.928 20.616 7.71C19.6326 7.34118 18.7442 6.75689 18.016 6C16.286 4.272 15.912 2.525 16.286 2.155C16.4196 2.05583 16.5854 2.00985 16.751 2.026C17.021 2.034 17.287 2.083 17.541 2.172C18.524 2.54212 19.4122 3.12661 20.141 3.883C21.871 5.613 22.246 7.355 21.871 7.729L21.872 7.728Z" fill="rgb(148, 163, 184)"/>
</g>
<defs>
<clipPath id="clip0_3_33">
<rect width="24" height="24" fill="white"/>
</clipPath>
</defs>
</svg>
