<svg width="16" height="16" viewBox="0 0 16 16" fill="none" xmlns="http://www.w3.org/2000/svg">
<g clip-path="url(#clip0_12_5)">
<path d="M6.5 0C2.91 0 0 2.462 0 5.5C0 6.575 0.37 7.574 1 8.422V12L3.699 10.458C4.58906 10.8173 5.54015 11.0014 6.5 11C10.09 11 13 8.538 13 5.5C13 2.462 10.09 0 6.5 0Z" fill="rgb(71, 85, 105)"/>
<path d="M16 9.5C16 8.513 15.571 7.603 14.853 6.861C14.124 10.348 10.66 13 6.5 13C6.397 13 6.298 12.982 6.195 12.979C7.231 13.617 8.556 14 10 14C10.449 14 10.886 13.96 11.307 13.89L15 16V12H14.988C15.627 11.285 16 10.425 16 9.5Z" fill="rgb(148, 163, 184)"/>
</g>
<defs>
<clipPath id="clip0_12_5">
<rect width="16" height="16" fill="white"/>
</clipPath>
</defs>
</svg>
